<mxfile host="app.diagrams.net" modified="2024-05-14T18:00:41.632Z" agent="Mozilla/5.0 (Windows NT 10.0; Win64; x64) AppleWebKit/537.36 (KHTML, like Gecko) Chrome/124.0.0.0 Safari/537.36" version="24.2.2" etag="P-8fOGx6DARxGkMDkRnU" type="github">
  <diagram name="Page-1" id="RuC9w4RcCm8l1UAVYLUh">
    <mxGraphModel>
      <root>
        <mxCell id="0" />
        <mxCell id="1" parent="0" />
      </root>
    </mxGraphModel>
  </diagram>
</mxfile>
